<svg xmlns="http://www.w3.org/2000/svg" viewBox="265 214 470 470" width="470" height="470">
  <rect x="265" y="214" width="470" height="470" style="fill:rgb(30,30,30);"/>
  <g style="fill-rule:evenodd;clip-rule:evenodd;stroke-linejoin:round;stroke-miterlimit:2;">
    <g transform="matrix(1,0,0,1,546.533,492.52)">
      <path d="M0,-123.613L0,-113.753C0,-112.472 -1.039,-111.433 -2.32,-111.433L-54.319,-111.433C-55.479,-111.433 -56.574,-111.957 -57.307,-112.851L-85.188,-147.119C-85.921,-148.021 -87.017,-148.537 -88.185,-148.537L-172.962,-148.537C-174.226,-148.537 -175.249,-147.514 -175.249,-146.257L-175.249,22.636C-175.249,23.901 -174.226,24.924 -172.962,24.924L-157.326,24.924C-156.045,24.924 -155.006,25.963 -155.006,27.236L-155.006,37.104C-155.006,38.385 -156.045,39.424 -157.326,39.424L-185.891,39.424C-188.018,39.424 -189.749,37.692 -189.749,35.566L-189.749,-159.186C-189.749,-161.313 -188.018,-163.037 -185.891,-163.037L-81.289,-163.037C-80.129,-163.037 -79.025,-162.522 -78.292,-161.619L-50.412,-127.351C-49.687,-126.457 -48.583,-125.933 -47.423,-125.933L-2.32,-125.933C-1.039,-125.933 0,-124.894 0,-123.613" style="fill:rgb(101,161,248);fill-rule:nonzero;"/>
    </g>
    <g transform="matrix(1,0,0,1,643.216,565.27)">
      <path d="M0,-194.752L0,0C0,2.127 -1.724,3.859 -3.859,3.859L-108.678,3.859C-109.975,3.859 -111.191,3.198 -111.9,2.119L-140.723,-41.776C-141.674,-43.218 -143.8,-43.21 -144.743,-41.76L-173.437,2.449C-174.13,3.52 -175.564,3.826 -176.643,3.126L-184.916,-2.239C-185.987,-2.94 -186.294,-4.374 -185.601,-5.446L-146.966,-64.96C-145.009,-67.981 -140.594,-67.989 -138.621,-64.984L-104.078,-12.381C-103.361,-11.302 -102.153,-10.641 -100.856,-10.641L-16.78,-10.641C-15.523,-10.641 -14.5,-11.665 -14.5,-12.929L-14.5,-181.823C-14.5,-183.088 -15.523,-184.111 -16.78,-184.111L-32.424,-184.111C-33.705,-184.111 -34.744,-185.142 -34.744,-186.423L-34.744,-196.291C-34.744,-197.571 -33.705,-198.611 -32.424,-198.611L-3.859,-198.611C-1.724,-198.611 0,-196.879 0,-194.752" style="fill:rgb(101,161,248);fill-rule:nonzero;"/>
    </g>
    <g transform="matrix(1,0,0,1,417.048,515.149)">
      <path d="M0,-131.701L0,0.008C0,1.265 1.023,2.288 2.288,2.288L19.68,2.288C20.961,2.288 22,3.327 22,4.608L22,14.476C22,15.757 20.961,16.788 19.68,16.788L-10.641,16.788C-12.768,16.788 -14.5,15.064 -14.5,12.937L-14.5,-144.63C-14.5,-146.757 -12.768,-148.489 -10.641,-148.489L19.68,-148.489C20.961,-148.489 22,-147.45 22,-146.169L22,-136.301C22,-135.02 20.961,-133.989 19.68,-133.989L2.288,-133.989C1.023,-133.989 0,-132.966 0,-131.701" style="fill:rgb(242,242,242);fill-rule:nonzero;"/>
    </g>
    <g transform="matrix(1,0,0,1,597.735,528.077)">
      <path d="M0,-157.559L0,0.008C0,2.135 -1.724,3.859 -3.859,3.859L-34.18,3.859C-35.461,3.859 -36.5,2.828 -36.5,1.547L-36.5,-8.321C-36.5,-9.602 -35.461,-10.641 -34.18,-10.641L-16.78,-10.641C-15.523,-10.641 -14.5,-11.664 -14.5,-12.921L-14.5,-144.63C-14.5,-145.895 -15.523,-146.918 -16.78,-146.918L-34.18,-146.918C-35.461,-146.918 -36.5,-147.949 -36.5,-149.23L-36.5,-159.098C-36.5,-160.378 -35.461,-161.418 -34.18,-161.418L-3.859,-161.418C-1.724,-161.418 0,-159.686 0,-157.559" style="fill:rgb(242,242,242);fill-rule:nonzero;"/>
    </g>
  </g>
</svg>
