<svg xmlns="http://www.w3.org/2000/svg" viewBox="0 0 960 360" width="960" height="360" style="fill-rule:evenodd;clip-rule:evenodd;stroke-linejoin:round;stroke-miterlimit:2;">
  <rect x="0" y="0" width="960" height="360" style="fill:rgb(30,30,30);"/>
  <g transform="translate(-277,-269.3)">
    <g transform="matrix(1,0,0,1,546.533,492.52)">
      <path d="M0,-123.613L0,-113.753C0,-112.472 -1.039,-111.433 -2.32,-111.433L-54.319,-111.433C-55.479,-111.433 -56.574,-111.957 -57.307,-112.851L-85.188,-147.119C-85.921,-148.021 -87.017,-148.537 -88.185,-148.537L-172.962,-148.537C-174.226,-148.537 -175.249,-147.514 -175.249,-146.257L-175.249,22.636C-175.249,23.901 -174.226,24.924 -172.962,24.924L-157.326,24.924C-156.045,24.924 -155.006,25.963 -155.006,27.236L-155.006,37.104C-155.006,38.385 -156.045,39.424 -157.326,39.424L-185.891,39.424C-188.018,39.424 -189.749,37.692 -189.749,35.566L-189.749,-159.186C-189.749,-161.313 -188.018,-163.037 -185.891,-163.037L-81.289,-163.037C-80.129,-163.037 -79.025,-162.522 -78.292,-161.619L-50.412,-127.351C-49.687,-126.457 -48.583,-125.933 -47.423,-125.933L-2.32,-125.933C-1.039,-125.933 0,-124.894 0,-123.613" style="fill:rgb(101,161,248);fill-rule:nonzero;"/>
    </g>
    <g transform="matrix(1,0,0,1,643.216,565.27)">
      <path d="M0,-194.752L0,0C0,2.127 -1.724,3.859 -3.859,3.859L-108.678,3.859C-109.975,3.859 -111.191,3.198 -111.9,2.119L-140.723,-41.776C-141.674,-43.218 -143.8,-43.21 -144.743,-41.76L-173.437,2.449C-174.13,3.52 -175.564,3.826 -176.643,3.126L-184.916,-2.239C-185.987,-2.94 -186.294,-4.374 -185.601,-5.446L-146.966,-64.96C-145.009,-67.981 -140.594,-67.989 -138.621,-64.984L-104.078,-12.381C-103.361,-11.302 -102.153,-10.641 -100.856,-10.641L-16.78,-10.641C-15.523,-10.641 -14.5,-11.665 -14.5,-12.929L-14.5,-181.823C-14.5,-183.088 -15.523,-184.111 -16.78,-184.111L-32.424,-184.111C-33.705,-184.111 -34.744,-185.142 -34.744,-186.423L-34.744,-196.291C-34.744,-197.571 -33.705,-198.611 -32.424,-198.611L-3.859,-198.611C-1.724,-198.611 0,-196.879 0,-194.752" style="fill:rgb(101,161,248);fill-rule:nonzero;"/>
    </g>
    <g transform="matrix(1,0,0,1,417.048,515.149)">
      <path d="M0,-131.701L0,0.008C0,1.265 1.023,2.288 2.288,2.288L19.68,2.288C20.961,2.288 22,3.327 22,4.608L22,14.476C22,15.757 20.961,16.788 19.68,16.788L-10.641,16.788C-12.768,16.788 -14.5,15.064 -14.5,12.937L-14.5,-144.63C-14.5,-146.757 -12.768,-148.489 -10.641,-148.489L19.68,-148.489C20.961,-148.489 22,-147.45 22,-146.169L22,-136.301C22,-135.02 20.961,-133.989 19.68,-133.989L2.288,-133.989C1.023,-133.989 0,-132.966 0,-131.701" style="fill:rgb(242,242,242);fill-rule:nonzero;"/>
    </g>
    <g transform="matrix(1,0,0,1,597.735,528.077)">
      <path d="M0,-157.559L0,0.008C0,2.135 -1.724,3.859 -3.859,3.859L-34.18,3.859C-35.461,3.859 -36.5,2.828 -36.5,1.547L-36.5,-8.321C-36.5,-9.602 -35.461,-10.641 -34.18,-10.641L-16.78,-10.641C-15.523,-10.641 -14.5,-11.664 -14.5,-12.921L-14.5,-144.63C-14.5,-145.895 -15.523,-146.918 -16.78,-146.918L-34.18,-146.918C-35.461,-146.918 -36.5,-147.949 -36.5,-149.23L-36.5,-159.098C-36.5,-160.378 -35.461,-161.418 -34.18,-161.418L-3.859,-161.418C-1.724,-161.418 0,-159.686 0,-157.559" style="fill:rgb(242,242,242);fill-rule:nonzero;"/>
    </g>
  </g>
  <g transform="translate(156,-453.5)">
    <g transform="matrix(1,0,0,1,289.865,634.185)">
      <path d="M0,0C0,-21.698 13.019,-36.332 32.295,-36.332C46.122,-36.332 57.223,-29.57 61.462,-14.936L50.361,-11.606C47.131,-21.8 40.773,-26.442 32.295,-26.442C19.781,-26.442 11.505,-16.552 11.505,0C11.505,16.552 19.781,26.442 32.295,26.442C40.975,26.442 47.434,21.9 50.865,11.607L62.068,14.936C57.526,29.773 46.424,36.332 32.295,36.332C13.019,36.332 0,21.698 0,0" style="fill:rgb(242,242,242);fill-rule:nonzero;"/>
    </g>
    <g transform="matrix(1,0,0,1,394.324,669.408)">
      <path d="M0,-52.279L0,-41.178C-1.615,-41.379 -2.422,-41.379 -3.835,-41.379C-11.808,-41.379 -20.084,-36.636 -20.084,-22.103L-20.084,0.101L-31.488,0.101L-31.488,-23.919C-31.488,-33.103 -31.488,-42.186 -31.993,-51.371L-21.193,-51.371L-19.781,-41.076L-19.074,-41.076C-16.148,-48.545 -10.698,-52.38 -3.734,-52.38C-2.422,-52.38 -1.513,-52.38 0,-52.279" style="fill:rgb(242,242,242);fill-rule:nonzero;"/>
    </g>
    <g transform="matrix(1,0,0,1,411.787,648.313)">
      <path d="M0,-9.082L26.644,-9.082C25.736,-17.862 20.791,-22.504 13.827,-22.504C6.358,-22.504 1.312,-17.559 0,-9.082M37.14,-1.009L-0.101,-1.009C0.908,8.176 6.157,13.423 14.029,13.423C19.479,13.423 23.415,11.102 26.038,5.45L36.232,8.478C32.498,17.561 24.929,22.204 13.928,22.204C-2.119,22.204 -11.404,10.497 -11.404,-4.541C-11.404,-19.578 -2.22,-31.286 13.827,-31.286C28.158,-31.286 37.443,-21.395 37.443,-5.954C37.443,-4.338 37.342,-2.421 37.14,-1.009" style="fill:rgb(242,242,242);fill-rule:nonzero;"/>
    </g>
    <g transform="matrix(1,0,0,1,473.556,598.861)">
      <path d="M0,70.647L-18.267,0L-6.459,0L7.569,59.243L8.175,59.243L21.799,0L36.231,0L49.754,59.243L50.36,59.243L64.388,0L75.692,0L57.323,70.647L42.488,70.647L29.066,11.707L28.46,11.707L14.835,70.647L0,70.647Z" style="fill:rgb(242,242,242);fill-rule:nonzero;"/>
    </g>
    <g transform="matrix(1,0,0,1,587.405,669.408)">
      <path d="M0,-52.279L0,-41.178C-1.615,-41.379 -2.422,-41.379 -3.835,-41.379C-11.808,-41.379 -20.084,-36.636 -20.084,-22.103L-20.084,0.101L-31.488,0.101L-31.488,-23.919C-31.488,-33.103 -31.488,-42.186 -31.993,-51.371L-21.194,-51.371L-19.781,-41.076L-19.074,-41.076C-16.148,-48.545 -10.698,-52.38 -3.734,-52.38C-2.422,-52.38 -1.514,-52.38 0,-52.279" style="fill:rgb(242,242,242);fill-rule:nonzero;"/>
    </g>
    <g transform="matrix(1,0,0,1,0,266.048)">
      <path d="M596.49,351.989L607.894,351.989L607.894,403.46L596.49,403.46L596.49,351.989ZM594.371,337.961C594.371,333.622 597.802,330.492 602.243,330.492C606.582,330.492 610.014,333.622 610.014,337.961C610.014,342.199 606.582,345.329 602.243,345.329C597.802,345.329 594.371,342.199 594.371,337.961" style="fill:rgb(242,242,242);fill-rule:nonzero;"/>
    </g>
    <g transform="matrix(1,0,0,1,627.475,619.551)">
      <path d="M0,35.121L0,7.771L-9.991,7.771L-9.991,-1.514L0.707,-1.514L2.927,-15.845L11.404,-15.845L11.404,-1.514L25.735,-1.514L25.735,7.771L11.404,7.771L11.404,34.617C11.404,39.46 14.129,41.58 17.662,41.58C19.983,41.58 22.001,41.076 24.322,39.663L27.452,47.535C23.515,50.057 19.881,50.966 15.442,50.966C6.258,50.966 0,45.718 0,35.121" style="fill:rgb(242,242,242);fill-rule:nonzero;"/>
    </g>
    <g transform="matrix(1,0,0,1,672.693,648.313)">
      <path d="M0,-9.082L26.643,-9.082C25.735,-17.862 20.79,-22.504 13.827,-22.504C6.358,-22.504 1.313,-17.559 0,-9.082M37.139,-1.009L-0.101,-1.009C0.908,8.176 6.156,13.423 14.028,13.423C19.479,13.423 23.414,11.102 26.038,5.45L36.232,8.478C32.497,17.561 24.928,22.204 13.928,22.204C-2.12,22.204 -11.404,10.497 -11.404,-4.541C-11.404,-19.578 -2.22,-31.286 13.827,-31.286C28.157,-31.286 37.442,-21.395 37.442,-5.954C37.442,-4.338 37.342,-2.421 37.139,-1.009" style="fill:rgb(242,242,242);fill-rule:nonzero;"/>
    </g>
  </g>
</svg>
